<?xml version="1.0" encoding="UTF-8" standalone="no"?>
<svg
   version="1.0"
   width="300.000000pt"
   height="282.000000pt"
   viewBox="0 0 300.000000 282.000000"
   preserveAspectRatio="xMidYMid meet"
   id="svg3616"
   sodipodi:docname="compression.svg"
   inkscape:version="1.2.2 (b0a84865, 2022-12-01)"
   xmlns:inkscape="http://www.inkscape.org/namespaces/inkscape"
   xmlns:sodipodi="http://sodipodi.sourceforge.net/DTD/sodipodi-0.dtd"
   xmlns="http://www.w3.org/2000/svg"
   xmlns:svg="http://www.w3.org/2000/svg">
  <defs
     id="defs3620" />
  <sodipodi:namedview
     id="namedview3618"
     pagecolor="#ffffff"
     bordercolor="#000000"
     borderopacity="0.25"
     inkscape:showpageshadow="2"
     inkscape:pageopacity="0.0"
     inkscape:pagecheckerboard="0"
     inkscape:deskcolor="#d1d1d1"
     inkscape:document-units="pt"
     showgrid="false"
     inkscape:zoom="2.731383"
     inkscape:cx="141.68647"
     inkscape:cy="189.46446"
     inkscape:window-width="2045"
     inkscape:window-height="1205"
     inkscape:window-x="58"
     inkscape:window-y="25"
     inkscape:window-maximized="0"
     inkscape:current-layer="svg3616" />
  <metadata
     id="metadata3606">
Created by potrace 1.10, written by Peter Selinger 2001-2011
</metadata>
  <g
     transform="translate(0.000000,282.000000) scale(0.100000,-0.100000)"
     fill="#000000"
     stroke="none"
     id="g3614">
    <path
       d="M2240 2682 c-33 -5 -58 -29 -75 -69 -10 -23 -21 -33 -35 -33 -35 0 -76 -30 -100 -72 -41 -73 -16 -264 50 -384 26 -49 23 -28 -20 116 -26 88 -31 117 -27 178 4 63 9 78 32 102 16 16 52 37 83 46 l55 18 71 -39 c89 -48 176 -109 266 -186 39 -34 70 -58 70 -54 0 4 7 2 15 -5 18 -15 20 -34 3 -24 -7 4 -9 3 -5 -1 4 -5 14 -10 22 -11 48 -7 -165 220 -270 288 -59 39 -67 41 -137 53 -60 9 -40 55 24 55 86 0 290 -178 434 -380 71 -101 124 -196 124 -224 0 -17 -2 -18 -10 -6 -6 9 -10 10 -10 3 0 -13 27 -43 38 -42 4 0 15 3 24 7 15 6 13 15 -18 76 -18 38 -55 100 -80 138 -58 85 -220 275 -265 310 -19 15 -47 39 -64 53 -66 59 -146 94 -195 87z m126 -148 c62 -41 209 -172 232 -206 13 -19 -59 42 -93 79 -23 26 -145 110 -193 133 -28 14 -51 29 -52 34 0 15 53 -5 106 -40z"
       id="path3608" />
    <path
       d="M2104 2498 c-12 -5 -26 -20 -32 -33 -16 -34 -8 -175 11 -211 9 -16 21 -40 28 -54 6 -14 15 -32 20 -40 5 -8 22 -40 37 -70 15 -30 35 -66 44 -79 10 -14 16 -27 13 -29 -5 -5 -55 31 -97 71 -16 14 -28 24 -28 21 0 -3 -19 8 -42 24 -135 91 -234 127 -334 120 -61 -4 -69 -7 -100 -40 -35 -38 -54 -91 -54 -148 0 -48 42 -204 70 -264 35 -74 35 -40 0 60 -41 116 -52 259 -25 310 22 41 69 64 130 64 59 0 143 -24 187 -53 18 -12 44 -28 58 -35 132 -67 165 -89 168 -109 2 -15 8 -20 18 -16 19 7 82 -52 136 -129 23 -32 44 -58 48 -58 7 0 90 -125 90 -136 0 -12 -31 -2 -42 15 -12 17 -132 149 -175 194 -10 10 -18 23 -18 28 0 14 -47 49 -66 49 -8 0 -33 15 -55 33 -43 37 -192 127 -210 127 -6 0 -17 6 -23 14 -7 9 -42 17 -86 21 -66 6 -77 5 -104 -14 -16 -12 -35 -37 -41 -57 -17 -50 -6 -148 20 -184 11 -15 20 -33 20 -40 0 -6 6 -18 14 -26 8 -7 22 -35 32 -61 10 -27 24 -54 31 -61 7 -7 13 -17 13 -22 0 -5 16 -30 36 -55 27 -36 30 -43 13 -31 -34 24 -46 20 -15 -5 15 -12 45 -46 67 -76 23 -30 69 -85 104 -122 62 -65 63 -67 43 -80 -19 -12 -23 -11 -35 5 -7 11 -41 49 -76 85 -34 36 -72 77 -83 90 -20 23 -34 34 -131 111 -57 45 -156 106 -220 135 -29 13 -55 28 -57 32 -8 12 -144 13 -167 1 -48 -26 -68 -140 -32 -182 9 -10 12 -25 8 -37 -4 -14 11 -53 51 -128 31 -59 62 -112 69 -118 16 -13 65 -80 65 -89 0 -6 -71 48 -144 110 -15 13 -30 24 -33 24 -2 0 -25 14 -49 31 -63 43 -178 94 -246 110 -140 30 -232 -58 -222 -214 3 -62 32 -168 66 -244 34 -76 32 -35 -3 73 -27 83 -33 115 -33 196 l-1 97 39 37 39 36 76 -4 c62 -4 90 -11 146 -39 187 -93 229 -122 335 -228 58 -59 126 -131 150 -161 25 -30 50 -59 57 -63 19 -12 16 -25 -4 -23 -12 1 -17 -5 -15 -18 2 -11 -1 -15 -7 -11 -6 3 -11 10 -11 14 0 9 -111 131 -192 213 -81 81 -187 154 -328 225 -64 32 -84 38 -141 38 -53 0 -72 -4 -89 -20 -30 -27 -50 -77 -37 -92 5 -7 7 -29 5 -48 -2 -19 0 -35 4 -35 4 0 8 -6 8 -13 0 -8 6 -27 14 -43 56 -117 103 -207 134 -254 38 -58 35 -57 -58 21 -30 25 -62 49 -70 53 -17 8 -69 40 -121 74 -65 43 -140 65 -220 66 -68 1 -79 -2 -112 -27 -46 -35 -56 -54 -64 -117 -5 -44 -8 -48 -24 -40 -57 31 -134 -6 -148 -70 -31 -147 207 -499 467 -692 100 -74 153 -85 180 -38 9 16 24 30 33 30 25 0 59 44 59 76 0 79 -45 167 -167 327 -62 82 -196 220 -255 264 -48 35 -48 35 -48 94 0 83 21 104 98 96 30 -3 60 -11 65 -16 6 -6 17 -11 23 -11 18 0 127 -66 215 -130 101 -73 160 -128 200 -187 65 -94 146 -182 174 -189 35 -9 65 12 65 44 0 38 -33 88 -114 173 -85 91 -115 132 -171 234 -65 118 -112 249 -120 330 -6 62 -5 73 13 95 16 20 29 25 65 24 63 -1 208 -74 332 -167 107 -80 142 -115 248 -250 38 -48 79 -95 92 -103 55 -36 108 12 78 70 -20 40 -71 104 -148 186 -87 92 -177 257 -230 420 -22 67 -22 153 0 187 15 23 21 24 71 19 132 -13 432 -215 520 -350 22 -33 66 -88 99 -123 63 -65 90 -76 119 -47 37 37 14 80 -120 225 -178 192 -321 547 -258 638 15 21 22 23 78 19 140 -12 401 -189 524 -358 80 -110 141 -170 172 -170 90 0 51 111 -85 240 -46 44 -125 150 -125 168 0 5 -8 20 -18 33 -31 41 -109 240 -121 309 -12 72 0 140 24 140 7 0 20 2 28 5 9 4 22 -14 42 -61 91 -214 378 -538 506 -571 77 -19 124 10 122 77 -2 49 -21 89 -33 69 -7 -10 -12 -10 -23 0 -15 12 -14 0 7 -74 16 -53 -54 -65 -129 -21 -124 73 -392 406 -402 500 l-4 41 18 -25 c153 -209 252 -330 309 -379 96 -81 126 -101 149 -100 18 0 17 1 -4 10 -14 5 -81 67 -150 137 -91 92 -144 155 -191 229 -36 56 -70 102 -77 103 -6 0 -15 5 -19 11 -13 22 41 -4 96 -46 121 -93 270 -267 330 -384 16 -33 24 -40 31 -30 13 21 -59 138 -160 258 -54 64 -179 173 -224 194 -193 91 -210 96 -253 75z m269 -813 c23 -29 25 -35 8 -20 -13 11 -37 38 -54 60 -23 29 -25 35 -8 20 13 -11 37 -38 54 -60z m-420 -379 c33 -46 3 -22 -44 37 -36 44 -38 47 -10 22 18 -16 42 -43 54 -59z m-1440 -211 c32 -8 75 -24 95 -34 20 -11 73 -38 116 -61 44 -22 101 -56 127 -74 46 -34 239 -248 239 -266 0 -6 6 -9 12 -8 7 2 13 -4 13 -12 0 -8 9 -19 19 -25 29 -15 32 -35 4 -35 -33 0 -50 14 -42 33 4 12 1 17 -13 17 -11 0 -54 37 -104 91 -90 98 -151 148 -265 220 -149 92 -179 105 -259 115 -70 8 -116 -23 -129 -86 -11 -54 -9 -52 -29 -44 -12 4 -14 11 -6 31 5 13 9 35 9 48 0 32 45 83 83 94 46 13 66 13 130 -4z m1000 -150 c23 -29 25 -35 8 -20 -13 11 -37 38 -54 60 -23 29 -25 35 -8 20 13 -11 37 -38 54 -60z m-1062 -163 c80 -72 156 -150 169 -173 14 -22 40 -64 59 -92 18 -29 42 -69 52 -90 11 -20 23 -37 28 -37 15 0 31 -49 22 -72 -5 -14 -3 -31 5 -47 11 -21 10 -29 -4 -53 -19 -33 -32 -36 -32 -8 0 11 -4 20 -9 20 -5 0 -24 12 -42 28 -25 20 -31 23 -26 9 4 -10 7 -28 8 -40 0 -12 3 -17 5 -11 3 6 16 9 29 6 20 -3 25 -10 25 -33 0 -22 -6 -30 -24 -35 -28 -7 -69 3 -61 15 2 5 -12 13 -33 20 -56 17 -178 117 -260 212 -68 78 -180 231 -174 237 1 1 -5 16 -14 33 -8 17 -13 33 -10 36 3 3 8 -2 12 -11 8 -22 25 -21 17 2 -5 14 -3 13 10 -3 9 -11 17 -25 17 -30 0 -15 90 -138 107 -148 24 -14 64 -61 83 -97 19 -37 75 -93 150 -152 43 -34 90 -63 90 -55 0 2 -32 29 -71 61 -83 69 -235 251 -302 365 -50 84 -96 195 -86 206 4 3 25 -2 48 -11 33 -13 46 -26 61 -60 11 -23 20 -47 20 -53 0 -12 52 -123 82 -176 68 -119 166 -243 238 -300 27 -22 20 -14 -88 114 -29 34 -50 67 -47 72 4 5 2 9 -4 9 -26 0 -176 288 -159 305 3 3 23 -8 45 -24 30 -22 42 -38 46 -65 3 -19 19 -55 35 -78 16 -24 32 -52 36 -63 11 -33 170 -210 192 -213 16 -2 7 11 -33 55 -78 83 -243 331 -214 322 39 -13 281 -334 281 -372 0 -9 5 -17 11 -19 5 -2 11 -11 13 -20 2 -19 16 -37 16 -22 -1 81 -137 288 -261 397 -236 207 -266 227 -339 227 -28 0 -40 4 -40 15 0 25 33 36 105 33 l71 -3 145 -133z m-303 2 c1 -15 7 -33 12 -40 8 -8 8 -14 0 -19 -11 -7 -30 34 -30 66 0 29 15 23 18 -7z m918 -186 c55 -71 35 -61 -27 13 -23 27 -37 49 -31 49 5 0 31 -28 58 -62z"
       id="path3610" />
    <path
       d="M1220 1841 c-59 -33 -75 -71 -74 -181 1 -92 21 -176 65 -272 21 -48 29 -19 9 35 -11 28 -29 90 -41 136 -19 77 -20 91 -9 158 14 79 25 94 83 113 73 23 193 -11 312 -90 17 -11 37 -22 45 -26 34 -13 76 -38 98 -57 12 -11 22 -18 22 -14 0 7 -57 67 -63 67 -2 0 -44 24 -93 53 -113 67 -165 87 -251 93 -55 4 -75 1 -103 -15z"
       id="path3612" />
  </g>
</svg>
